<svg xmlns="http://www.w3.org/2000/svg" viewBox="0 0 488.35 58.33"><defs><style>.cls-1{fill:#fff;stroke:#fff;stroke-miterlimit:10;stroke-width:0.7px;}</style></defs><title>Asset 1</title><g id="Layer_2" data-name="Layer 2"><g id="Layer_1-2" data-name="Layer 1"><g id="Layer_2-2" data-name="Layer 2"><g id="Layer_1-2-2" data-name="Layer 1-2"><path class="cls-1" d="M.35.84h21V7.6H9V24.53h9.52v6.73H9v19.5H21.63v6.63H.35Z"/><path class="cls-1" d="M25.89.84h8.78l6.2,44.82h.36L47.5.84h8.75L45.94,57.39H36.19Z"/><path class="cls-1" d="M64,.84h21V7.6H72.56V24.53h9.56v6.73H72.56v19.5H85.27v6.63H64Z"/><path class="cls-1" d="M93.72.84h12.8a23,23,0,0,1,3.8.65A15.81,15.81,0,0,1,114,3a10.62,10.62,0,0,1,3.25,2.83,14.55,14.55,0,0,1,2.21,4.61,22.68,22.68,0,0,1,.81,6.5v1.43a25.64,25.64,0,0,1-1.85,10.53A11.78,11.78,0,0,1,113,35L122,57.72H113l-7.51-21.16H102.2V57.39H93.72Zm9.75,29.25a12.88,12.88,0,0,0,3.8-.49,5.21,5.21,0,0,0,2.44-1.72,7.32,7.32,0,0,0,1.39-3.25,21.87,21.87,0,0,0,.43-4.78V15.47a17,17,0,0,0-.39-3.77,5.92,5.92,0,0,0-1.33-2.6,5.68,5.68,0,0,0-2.51-1.53,13.17,13.17,0,0,0-3.9-.49h-1.3v23Z"/><path class="cls-1" d="M137.4,38.57,126,.84h8.64l6.92,27.07h.39L148.71.84h8.61L146,38.57V57.39H137.4Z"/><path class="cls-1" d="M164.7.84h13.09a17,17,0,0,1,4.26.72A14,14,0,0,1,186,3.38a11.11,11.11,0,0,1,3.25,3.47,19.1,19.1,0,0,1,2.21,5.63,35.22,35.22,0,0,1,.81,8.32V37.21a35.27,35.27,0,0,1-.81,8.32,18.87,18.87,0,0,1-2.24,5.69,11,11,0,0,1-3.25,3.44,13.44,13.44,0,0,1-3.9,1.85,19.27,19.27,0,0,1-4.26.72H164.7Zm10.75,50.57a10.86,10.86,0,0,0,3.84-.58,4.8,4.8,0,0,0,2.37-2.12,11.25,11.25,0,0,0,1.24-4,61.37,61.37,0,0,0,.32-6.5V20.47a61.37,61.37,0,0,0-.32-6.5,11.29,11.29,0,0,0-1.24-4.09,4.71,4.71,0,0,0-2.37-2.12,10.86,10.86,0,0,0-3.84-.58h-2.17V51.41Z"/><path class="cls-1" d="M208.31.84h9.75l10.59,56.55H220l-1.56-10.11H208.08l-1.46,10.11h-8.71Zm9.13,40-4-28.18h-.35l-4,28.18Z"/><path class="cls-1" d="M243.12,38.57,231.71.84h8.64l6.93,27.07h.39L254.52.84h8.62L251.7,38.57V57.39h-8.58Z"/><path class="cls-1" d="M284.91.84h12.64a33.81,33.81,0,0,1,3.9.68,16.42,16.42,0,0,1,3.74,1.3,9.67,9.67,0,0,1,3.05,2.25,10.64,10.64,0,0,1,2.08,3.54,14.42,14.42,0,0,1,.88,5v2.76a12.88,12.88,0,0,1-.65,4.13,12.73,12.73,0,0,1-1.69,3.25,10.72,10.72,0,0,1-2.43,2.37,7.51,7.51,0,0,1-2.77,1.27v.39a9.13,9.13,0,0,1,6.34,3.9A14.69,14.69,0,0,1,312.11,40v2.86a19.85,19.85,0,0,1-.65,5.37,11.94,11.94,0,0,1-1.92,3.86,10.24,10.24,0,0,1-2.92,2.64,13.94,13.94,0,0,1-3.7,1.59,24.22,24.22,0,0,1-4.29.81c-1.53,0-3.09.2-4.72.2h-9Zm10,24.38a10.49,10.49,0,0,0,3.25-.43,5.72,5.72,0,0,0,2.44-1.3,5.42,5.42,0,0,0,1.56-2.27,9.45,9.45,0,0,0,.55-3.25v-2.5a13.85,13.85,0,0,0-.39-3.51,6.39,6.39,0,0,0-1.3-2.57,6.07,6.07,0,0,0-2.4-1.63A10.89,10.89,0,0,0,295,7.11h-1.62V25.22Zm.78,26.39a10.52,10.52,0,0,0,3.25-.46,6.53,6.53,0,0,0,2.44-1.36A7.1,7.1,0,0,0,303,47.38a10.05,10.05,0,0,0,.52-3.44V39.35a13.85,13.85,0,0,0-.39-3.51,6.14,6.14,0,0,0-1.3-2.6,6,6,0,0,0-2.37-1.59,10.35,10.35,0,0,0-3.58-.55h-2.53V51.44Z"/><path class="cls-1" d="M334.34,57.91a19,19,0,0,1-2.92-.23,11.57,11.57,0,0,1-6.15-2.86,12.22,12.22,0,0,1-2.56-3.25A20.75,20.75,0,0,1,321,46.31a33.91,33.91,0,0,1-.68-7.31V18.94a33.63,33.63,0,0,1,.68-7.28,19.78,19.78,0,0,1,1.82-5.1,11.4,11.4,0,0,1,2.57-3.25,11,11,0,0,1,3-1.85,13,13,0,0,1,3.25-.85,24.82,24.82,0,0,1,2.86-.19,18,18,0,0,1,2.83.16,12,12,0,0,1,3.05.81,10.67,10.67,0,0,1,3,1.82,11.4,11.4,0,0,1,2.57,3.25,19.21,19.21,0,0,1,1.82,5.14,36.51,36.51,0,0,1,.65,7.38V39a33.36,33.36,0,0,1-.68,7.25,20.77,20.77,0,0,1-1.82,5.13,11.68,11.68,0,0,1-2.6,3.25,12,12,0,0,1-6.08,3.06A22.77,22.77,0,0,1,334.34,57.91Zm0-6.5a5.21,5.21,0,0,0,2.21-.42,3.25,3.25,0,0,0,1.56-1.5,8.6,8.6,0,0,0,.94-2.79,26.85,26.85,0,0,0,.3-4.39V16.6a28.91,28.91,0,0,0-.3-4.55,9.5,9.5,0,0,0-.94-2.92,3.37,3.37,0,0,0-1.56-1.56,4.7,4.7,0,0,0-2.21-.46,5,5,0,0,0-2.24.46,3.63,3.63,0,0,0-1.59,1.56,9.8,9.8,0,0,0-.95,2.92,30.15,30.15,0,0,0-.29,4.55V42.34a28,28,0,0,0,.29,4.39,9,9,0,0,0,.95,2.8A3.53,3.53,0,0,0,332.1,51a5.38,5.38,0,0,0,2.24.42Z"/><path class="cls-1" d="M356.47,46a27.16,27.16,0,0,1,.23-3.25,32.78,32.78,0,0,1,.65-3.25h6.5v2.76a28.51,28.51,0,0,0,.26,4,9.93,9.93,0,0,0,.94,3A4.22,4.22,0,0,0,366.78,51a5.11,5.11,0,0,0,2.63.62,5,5,0,0,0,3.74-1.33,5.49,5.49,0,0,0,1.3-3.94,14.15,14.15,0,0,0-.2-2.43,11.15,11.15,0,0,0-.62-2.21,15,15,0,0,0-1.2-2.28,31.84,31.84,0,0,0-1.95-2.7l-9-10.66A26.16,26.16,0,0,1,357.84,20a17.22,17.22,0,0,1-1.27-6.5,14.72,14.72,0,0,1,.88-5.17A11.77,11.77,0,0,1,360,4.22a10.87,10.87,0,0,1,4.07-2.63A14.83,14.83,0,0,1,369.7.35a16.58,16.58,0,0,1,6.24,1,11.2,11.2,0,0,1,4,2.8,10.38,10.38,0,0,1,2.11,3.87,15.84,15.84,0,0,1,.65,4.16,20.84,20.84,0,0,1-.26,3.25c-.19,1-.42,2.14-.65,3.25h-6.5V16.41A14.59,14.59,0,0,0,374,9.52a4.36,4.36,0,0,0-4.29-2.41,4.47,4.47,0,0,0-3.61,1.34,5.1,5.1,0,0,0-1.2,3.57,10.66,10.66,0,0,0,.2,2.18,8.19,8.19,0,0,0,.52,1.75,9.76,9.76,0,0,0,.84,1.6c.33.48.72,1,1.14,1.59l9.94,12a34.73,34.73,0,0,1,4.2,6.83,16.69,16.69,0,0,1,1.46,6.89,15.25,15.25,0,0,1-.94,5.43,11.76,11.76,0,0,1-2.8,4.16,12.7,12.7,0,0,1-4.26,2.6,16.84,16.84,0,0,1-5.59.91,17.35,17.35,0,0,1-6.5-1,11.12,11.12,0,0,1-4.06-2.7,10.1,10.1,0,0,1-2.11-3.87A16.86,16.86,0,0,1,356.47,46Z"/><path class="cls-1" d="M397.81,7.6h-9.1V.84h26.75V7.6h-9.07V57.39h-8.58Z"/><path class="cls-1" d="M436.06,57.91a19.44,19.44,0,0,1-2.95-.23A11.57,11.57,0,0,1,427,54.82a12.22,12.22,0,0,1-2.56-3.25,20.62,20.62,0,0,1-1.76-5.13,33.91,33.91,0,0,1-.68-7.31V18.94a33.63,33.63,0,0,1,.68-7.28,19.78,19.78,0,0,1,1.82-5.1A11.4,11.4,0,0,1,427,3.31a10.54,10.54,0,0,1,3-1.85A12.67,12.67,0,0,1,433.3.61a23.37,23.37,0,0,1,2.89-.19,17.77,17.77,0,0,1,2.8.16,11.85,11.85,0,0,1,3.05.81,10.72,10.72,0,0,1,3,1.82,11.2,11.2,0,0,1,2.56,3.25,19.21,19.21,0,0,1,1.82,5.14A34.47,34.47,0,0,1,450.1,19V39a33.36,33.36,0,0,1-.68,7.25,20.77,20.77,0,0,1-1.82,5.13,11.51,11.51,0,0,1-2.6,3.25,11.92,11.92,0,0,1-6.08,3A21,21,0,0,1,436.06,57.91Zm0-6.5a5.08,5.08,0,0,0,2.18-.42,3.25,3.25,0,0,0,1.56-1.5,8.6,8.6,0,0,0,.94-2.79,26.85,26.85,0,0,0,.3-4.39V16.6a28.91,28.91,0,0,0-.3-4.55,9.5,9.5,0,0,0-.94-2.92,3.37,3.37,0,0,0-1.56-1.56,4.68,4.68,0,0,0-2.18-.46,5.08,5.08,0,0,0-2.27.46,3.8,3.8,0,0,0-1.59,1.56,9.8,9.8,0,0,0-.95,2.92A30.15,30.15,0,0,0,431,16.6V42.34a28,28,0,0,0,.29,4.39,9,9,0,0,0,.95,2.8A3.64,3.64,0,0,0,433.79,51a5.36,5.36,0,0,0,2.27.42Z"/><path class="cls-1" d="M460.37.84h6.83L480.91,38.7h.2a12.12,12.12,0,0,0-.26-3,24.58,24.58,0,0,1-.33-3.71c-.09-1.4,0-2.92-.22-4.68a50,50,0,0,1,0-5.88V.84H488V57.39h-7L467.33,20.54h-.13a14.45,14.45,0,0,0,.26,3.25,29.47,29.47,0,0,1,.29,4.09c.1,1.59.16,3.25.23,5.46s0,4.58,0,7.44V57.39h-7.61Z"/></g></g></g></g></svg>