<svg id="Layer_1" data-name="Layer 1" xmlns="http://www.w3.org/2000/svg" viewBox="0 0 422.85 58.41"><defs><style>.cls-1{stroke:#000;stroke-miterlimit:10;stroke-width:1.5px;}</style></defs><title>name</title><path class="cls-1" d="M250.08,265.76l-3.52,3.81c-3.1-2.88-6.05-4.17-9.65-4.17-4.32,0-7.35,2.81-7.35,7.2,0,4.1,1.73,6.48,9.22,9.14,7.27,2.6,12.6,6.12,12.6,15,0,8-5.9,14.62-15.55,14.62a19.08,19.08,0,0,1-14.69-6.41l3.53-3.82c3.16,2.88,6.48,4.83,11.09,4.83,5.18,0,8.78-3.39,8.78-9.08,0-4.68-1.87-7.2-9-9.72-8.64-3.09-12.67-7.2-12.67-14.25s5.76-12.82,14-12.82A17.29,17.29,0,0,1,250.08,265.76Z" transform="translate(-220.12 -253.77)"/><path class="cls-1" d="M284.64,307l-1.36,4.39c-3.53-.58-5.69-1.95-6.63-5.55a10.58,10.58,0,0,1-9.57,5.55c-6.63,0-10.66-4.61-10.66-11.45,0-8.07,5.33-12.46,15.12-12.46h4.18v-3.31c0-5.26-2.09-7.35-6.48-7.35a24.56,24.56,0,0,0-8.93,2l-1.52-4.54a30.08,30.08,0,0,1,11.38-2.52c8.21,0,11.88,4.61,11.88,12.1v18.44C282.05,305.22,283,306.23,284.64,307Zm-8.92-6.41v-8.86h-3.46c-6.26,0-9.22,2.59-9.22,7.92,0,4.68,1.95,7,5.33,7S274.06,304.57,275.72,300.54Z" transform="translate(-220.12 -253.77)"/><path class="cls-1" d="M320.93,291.46c0,12.39-5,19.88-12.82,19.88a10.68,10.68,0,0,1-8.71-4.9l-.5,4h-5.62V257.33l6.34-.72v20.6c2.23-3.39,5.25-5.48,9.21-5.48C316.25,271.73,320.93,278.21,320.93,291.46Zm-6.69,0c0-11.44-2.89-14.69-7-14.69-3.46,0-5.9,2.81-7.63,5.91v18.65c1.65,2.81,4.17,5,7.13,5C311.14,306.3,314.24,302.41,314.24,291.46Z" transform="translate(-220.12 -253.77)"/><path class="cls-1" d="M348.07,272.17,347,278.29a10.67,10.67,0,0,0-2.73-.36c-4,0-6.48,3.38-7.85,10.29v22.25h-6.34V272.53h5.47l.58,7.2c1.8-5.4,4.83-8,8.86-8A10.25,10.25,0,0,1,348.07,272.17Z" transform="translate(-220.12 -253.77)"/><path class="cls-1" d="M361.75,258.92a4.08,4.08,0,0,1-4.25,4.25,4.33,4.33,0,1,1,4.25-4.25Zm-1.08,51.55h-6.33V272.53h6.33Z" transform="translate(-220.12 -253.77)"/><path class="cls-1" d="M397.32,283.33v27.14H391V284.19c0-5.76-1.65-7.49-4.6-7.49-3.24,0-5.91,2.74-8.14,7v26.78H371.9V272.53h5.48l.5,5.68c2.38-3.88,5.4-6.48,10-6.48C393.72,271.73,397.32,276.05,397.32,283.33Z" transform="translate(-220.12 -253.77)"/><path class="cls-1" d="M433.54,307l-1.37,4.39c-3.53-.58-5.69-1.95-6.63-5.55a10.57,10.57,0,0,1-9.57,5.55c-6.63,0-10.66-4.61-10.66-11.45,0-8.07,5.33-12.46,15.12-12.46h4.18v-3.31c0-5.26-2.09-7.35-6.48-7.35a24.56,24.56,0,0,0-8.93,2l-1.51-4.54a30,30,0,0,1,11.37-2.52c8.21,0,11.88,4.61,11.88,12.1v18.44C430.94,305.22,431.88,306.23,433.54,307Zm-8.93-6.41v-8.86h-3.46c-6.26,0-9.22,2.59-9.22,7.92,0,4.68,1.95,7,5.33,7S423,304.57,424.61,300.54Z" transform="translate(-220.12 -253.77)"/><path class="cls-1" d="M465.14,310.47h-6.55V260.86h6.55Zm7.42-26.93,17.14,26.93h-7.56L465.43,284l16.06-23.12h7.05Z" transform="translate(-220.12 -253.77)"/><path class="cls-1" d="M520.3,307l-1.37,4.39c-3.53-.58-5.69-1.95-6.63-5.55a10.58,10.58,0,0,1-9.57,5.55c-6.63,0-10.66-4.61-10.66-11.45,0-8.07,5.33-12.46,15.12-12.46h4.18v-3.31c0-5.26-2.09-7.35-6.48-7.35a24.56,24.56,0,0,0-8.93,2l-1.51-4.54a30,30,0,0,1,11.37-2.52c8.21,0,11.88,4.61,11.88,12.1v18.44C517.7,305.22,518.64,306.23,520.3,307Zm-8.93-6.41v-8.86h-3.46c-6.26,0-9.22,2.59-9.22,7.92,0,4.68,1.95,7,5.33,7S509.71,304.57,511.37,300.54Z" transform="translate(-220.12 -253.77)"/><path class="cls-1" d="M554.35,283.33v27.14H548V284.19c0-5.76-1.65-7.49-4.6-7.49-3.24,0-5.91,2.74-8.14,7v26.78h-6.34V272.53h5.48l.5,5.68c2.38-3.88,5.4-6.48,10-6.48C550.75,271.73,554.35,276.05,554.35,283.33Z" transform="translate(-220.12 -253.77)"/><path class="cls-1" d="M582.57,308.75a12.07,12.07,0,0,1-7.56,2.59c-5.9,0-9.14-3.67-9.14-9.58V277.49H560.4v-5h5.47V264l6.34-.79v9.36h7.7l-.65,5h-7v24.2c0,2.81,1,4.39,3.81,4.39a8.08,8.08,0,0,0,4.11-1.29Z" transform="translate(-220.12 -253.77)"/><path class="cls-1" d="M615.05,291.46c0,12.1-5.55,19.88-14.84,19.88s-14.76-7.49-14.76-19.8c0-12.6,5.47-19.81,14.84-19.81S615.05,278.57,615.05,291.46Zm-22.9.08c0,10.51,2.88,14.69,8.06,14.69s8.07-4.18,8.07-14.77-2.81-14.61-8-14.61S592.15,281,592.15,291.54Z" transform="translate(-220.12 -253.77)"/><path class="cls-1" d="M642.12,272.17,641,278.29a10.81,10.81,0,0,0-2.74-.36c-4,0-6.48,3.38-7.85,10.29v22.25h-6.33V272.53h5.47l.57,7.2c1.8-5.4,4.83-8,8.86-8A10.36,10.36,0,0,1,642.12,272.17Z" transform="translate(-220.12 -253.77)"/></svg>