<svg id="Layer_1" data-name="Layer 1" xmlns="http://www.w3.org/2000/svg" viewBox="0 0 528.53 75.81"><title>name</title><path d="M276.67,305.19a25.59,25.59,0,0,1,8.33,6.07l-6.35,7.54q-5.52-5.06-10.95-5.06a6.4,6.4,0,0,0-4.88,1.84,6.79,6.79,0,0,0-1.75,4.88,6.3,6.3,0,0,0,2,4.83q2,1.89,7.82,4.37a44.08,44.08,0,0,1,8.65,4.92,16.39,16.39,0,0,1,5,6.21,21.67,21.67,0,0,1,1.7,9.11,20.62,20.62,0,0,1-2.62,10.4,18.2,18.2,0,0,1-7.5,7.18,24.09,24.09,0,0,1-11.41,2.58A26.9,26.9,0,0,1,253,367.66a29.92,29.92,0,0,1-8.92-6.62l6.9-7.64a30.43,30.43,0,0,0,6.3,4.46,13.92,13.92,0,0,0,6.39,1.52,7.1,7.1,0,0,0,5.7-2.25,9.09,9.09,0,0,0,1.93-6.12,8.53,8.53,0,0,0-1.93-5.75q-1.93-2.25-7-4.28-8.83-3.68-12.51-8.14a17.12,17.12,0,0,1-3.68-11.27,18,18,0,0,1,2.58-9.61,17.38,17.38,0,0,1,7.13-6.49,22.44,22.44,0,0,1,10.26-2.3A25.73,25.73,0,0,1,276.67,305.19Z" transform="translate(-244.06 -294.24)" style="fill:#000"/><path d="M326.12,358.92a3.88,3.88,0,0,0,1.93,1.75l-2.85,9.11a15.29,15.29,0,0,1-6.49-1.89,9.79,9.79,0,0,1-3.91-4.74,13.38,13.38,0,0,1-12.05,6.9,12.07,12.07,0,0,1-9.66-4.19q-3.59-4.19-3.59-11.09,0-8,5-12.19T309,338.4H312v-2.58q0-4.42-1.33-6.12t-4.74-1.7a29.61,29.61,0,0,0-10.49,2.48l-3.13-8.83a38.24,38.24,0,0,1,8-2.67,38.83,38.83,0,0,1,8.14-.92q8.65,0,12.88,4.19t4.23,12.83v20.42A8,8,0,0,0,326.12,358.92Zm-16.28.09a8.75,8.75,0,0,0,2.12-3.4v-9.48H310.3q-3.77,0-5.47,1.79t-1.7,5.66a9.73,9.73,0,0,0,1,4.92,3.15,3.15,0,0,0,2.85,1.7A4.1,4.1,0,0,0,309.84,359Z" transform="translate(-244.06 -294.24)" style="fill:#000"/><path d="M369.68,324.6q3.73,6.53,3.73,19.5,0,12.05-4.28,19t-11.82,6.95a11.19,11.19,0,0,1-5.84-1.56,13.61,13.61,0,0,1-4.46-4.42l-.64,4.42H334V300.22l13.89-1.47v25.39a14.28,14.28,0,0,1,4.74-4.46,12.09,12.09,0,0,1,6.12-1.61Q366,318.07,369.68,324.6Zm-12.05,31.83q1.52-3.5,1.52-12.33,0-9.29-1.33-12.56T354,328.28q-3.31,0-6.07,5.24v22.08q2.21,4.32,5.34,4.32Q356.11,359.93,357.63,356.43Z" transform="translate(-244.06 -294.24)" style="fill:#000"/><path d="M407.45,319l-2.3,13.34a10.69,10.69,0,0,0-3.4-.55,5.68,5.68,0,0,0-5.11,2.62,23.85,23.85,0,0,0-2.81,7.87v26.22H379.94V319.63H392l1,8q3.5-9.38,10.58-9.38A10.8,10.8,0,0,1,407.45,319Z" transform="translate(-244.06 -294.24)" style="fill:#000"/><path d="M423.59,296.5a8,8,0,0,1,2.16,5.75,7.76,7.76,0,0,1-2.21,5.66,8.34,8.34,0,0,1-11.41,0,7.76,7.76,0,0,1-2.21-5.66,7.88,7.88,0,0,1,2.21-5.75,8.4,8.4,0,0,1,11.45,0Zm1.33,23.14v48.85H411V319.63Z" transform="translate(-244.06 -294.24)" style="fill:#000"/><path d="M466.37,321.84q3,3.77,3,10.12v36.52H455.47V333.43q0-4.78-2.67-4.78t-5.8,5.89v33.95H433.11V319.63h12.05l1,5.8a18.23,18.23,0,0,1,5.24-5.52,12.12,12.12,0,0,1,6.72-1.84A9.93,9.93,0,0,1,466.37,321.84Z" transform="translate(-244.06 -294.24)" style="fill:#000"/><path d="M511.41,358.92a3.88,3.88,0,0,0,1.93,1.75l-2.85,9.11a15.28,15.28,0,0,1-6.49-1.89,9.79,9.79,0,0,1-3.91-4.74,13.38,13.38,0,0,1-12.05,6.9,12.07,12.07,0,0,1-9.66-4.19q-3.59-4.19-3.59-11.09,0-8,5-12.19t14.54-4.19h2.94v-2.58q0-4.42-1.33-6.12t-4.74-1.7a29.61,29.61,0,0,0-10.49,2.48l-3.13-8.83a38.26,38.26,0,0,1,8-2.67,38.83,38.83,0,0,1,8.14-.92q8.65,0,12.88,4.19t4.23,12.83v20.42A8,8,0,0,0,511.41,358.92Zm-16.28.09a8.75,8.75,0,0,0,2.12-3.4v-9.48h-1.66q-3.77,0-5.47,1.79t-1.7,5.66a9.73,9.73,0,0,0,1,4.92,3.15,3.15,0,0,0,2.85,1.7A4.1,4.1,0,0,0,495.12,359Z" transform="translate(-244.06 -294.24)" style="fill:#000"/><path d="M550.87,304.73v63.76H536.43V304.73Zm30.73,0-15.82,28.7L583,368.49H567.25l-15.92-34,16-29.72Z" transform="translate(-244.06 -294.24)" style="fill:#000"/><path d="M619.32,358.92a3.88,3.88,0,0,0,1.93,1.75l-2.85,9.11a15.28,15.28,0,0,1-6.49-1.89,9.79,9.79,0,0,1-3.91-4.74,13.38,13.38,0,0,1-12.05,6.9,12.07,12.07,0,0,1-9.66-4.19q-3.59-4.19-3.59-11.09,0-8,5-12.19t14.54-4.19h2.94v-2.58q0-4.42-1.33-6.12t-4.74-1.7a29.61,29.61,0,0,0-10.49,2.48l-3.13-8.83a38.26,38.26,0,0,1,8-2.67,38.83,38.83,0,0,1,8.14-.92q8.65,0,12.88,4.19t4.23,12.83v20.42A8,8,0,0,0,619.32,358.92ZM603,359a8.75,8.75,0,0,0,2.12-3.4v-9.48H603.5q-3.77,0-5.47,1.79t-1.7,5.66a9.73,9.73,0,0,0,1,4.92,3.15,3.15,0,0,0,2.85,1.7A4.1,4.1,0,0,0,603,359Z" transform="translate(-244.06 -294.24)" style="fill:#000"/><path d="M660.49,321.84q3,3.77,3,10.12v36.52H649.59V333.43q0-4.78-2.67-4.78t-5.8,5.89v33.95H627.23V319.63h12.05l1,5.8a18.23,18.23,0,0,1,5.24-5.52,12.12,12.12,0,0,1,6.72-1.84A9.93,9.93,0,0,1,660.49,321.84Z" transform="translate(-244.06 -294.24)" style="fill:#000"/><path d="M698.16,366.19a15.53,15.53,0,0,1-5.34,2.9,20.22,20.22,0,0,1-6.16,1q-7.09,0-10.67-4t-3.59-10.86V329.39h-5.06v-9.75h5.06V309l13.89-1.56v12.24h9.11l-1.47,9.75h-7.64v25.67q0,4,3.31,4a7.68,7.68,0,0,0,4-1.29Z" transform="translate(-244.06 -294.24)" style="fill:#000"/><path d="M733.17,324.6q5.38,6.53,5.38,19.5,0,12.42-5.38,19.18t-15,6.76q-9.57,0-14.95-6.58T697.89,344q0-12.6,5.38-19.27t14.95-6.67Q727.79,318.07,733.17,324.6Zm-19.6,7.31q-1.43,3.54-1.43,12.1,0,8.83,1.43,12.33t4.65,3.5q3.22,0,4.65-3.54t1.43-12.19q0-8.74-1.43-12.24t-4.65-3.5Q715,328.37,713.57,331.92Z" transform="translate(-244.06 -294.24)" style="fill:#000"/><path d="M772.59,319l-2.3,13.34a10.69,10.69,0,0,0-3.4-.55,5.68,5.68,0,0,0-5.11,2.62,23.85,23.85,0,0,0-2.81,7.87v26.22H745.08V319.63h12.05l1,8q3.5-9.38,10.58-9.38A10.8,10.8,0,0,1,772.59,319Z" transform="translate(-244.06 -294.24)" style="fill:#000"/></svg>
