<svg id="Layer_1" data-name="Layer 1" xmlns="http://www.w3.org/2000/svg" viewBox="0 0 212.08 26.26"><title>title</title><path d="M555.73,347.36v19.27H552.9l-.16-1.59a3.61,3.61,0,0,1-6.41.06,10.53,10.53,0,0,1-1.13-5.34,11.47,11.47,0,0,1,.59-3.83,5.76,5.76,0,0,1,1.63-2.54,3.59,3.59,0,0,1,2.39-.88,3.31,3.31,0,0,1,2.73,1.38V347Zm-4.15,16.82a4.91,4.91,0,0,0,.95-1.2V356.3q-.83-1.4-1.9-1.4-2.11,0-2.11,4.84a9.62,9.62,0,0,0,.52,3.74,1.54,1.54,0,0,0,2.54.7Z" transform="translate(-545.2 -346.01)" style="fill:#fff"/><path d="M568.42,360.75h-7.1a5.59,5.59,0,0,0,.74,3,2.13,2.13,0,0,0,1.81.85,3.72,3.72,0,0,0,1.46-.27,6.13,6.13,0,0,0,1.4-.87l1.33,1.82a6,6,0,0,1-4.37,1.77,4.92,4.92,0,0,1-4.15-1.87,8.48,8.48,0,0,1-1.44-5.28,9.27,9.27,0,0,1,1.38-5.38,4.88,4.88,0,0,1,7.67-.22,8.36,8.36,0,0,1,1.35,5.16Q568.5,359.66,568.42,360.75Zm-3-2.26a6.48,6.48,0,0,0-.47-2.85,1.58,1.58,0,0,0-1.51-.9,1.61,1.61,0,0,0-1.47.87,7.24,7.24,0,0,0-.61,3.05h4.06Z" transform="translate(-545.2 -346.01)" style="fill:#fff"/><path d="M578.69,354.12l-1.22,1.74a6.7,6.7,0,0,0-1.38-.78,3.55,3.55,0,0,0-1.33-.26,1.66,1.66,0,0,0-1.18.4,1.6,1.6,0,0,0,.05,2.24,7.1,7.1,0,0,0,1.94,1,6.85,6.85,0,0,1,2.65,1.66,3.73,3.73,0,0,1,.86,2.57,3.88,3.88,0,0,1-1.4,3.16,5.42,5.42,0,0,1-3.56,1.16,6.5,6.5,0,0,1-2.59-.51,6.3,6.3,0,0,1-2.07-1.42l1.56-1.72a4.5,4.5,0,0,0,3,1.27,1.92,1.92,0,0,0,1.35-.46,1.63,1.63,0,0,0,.49-1.26,2,2,0,0,0-.21-1,2,2,0,0,0-.73-.7,9.18,9.18,0,0,0-1.56-.71,6.16,6.16,0,0,1-2.56-1.64,3.65,3.65,0,0,1-.77-2.39,3.73,3.73,0,0,1,1.23-2.87,4.72,4.72,0,0,1,3.32-1.13A5.77,5.77,0,0,1,578.69,354.12Z" transform="translate(-545.2 -346.01)" style="fill:#fff"/><path d="M584.06,346.55a1.93,1.93,0,0,1,.53,1.4,1.89,1.89,0,0,1-.53,1.38,2,2,0,0,1-2.78,0,1.89,1.89,0,0,1-.53-1.38,1.93,1.93,0,0,1,.53-1.4,2,2,0,0,1,2.78,0Zm.22,6.32v13.75h-3.2V352.87Z" transform="translate(-545.2 -346.01)" style="fill:#fff"/><path d="M597.39,353.57a4.44,4.44,0,0,1-1.31.36,14.43,14.43,0,0,1-1.91.1,3.71,3.71,0,0,1,1.63,1.39,4,4,0,0,1,.53,2.15,4.54,4.54,0,0,1-1.27,3.35,4.67,4.67,0,0,1-3.46,1.27,4.49,4.49,0,0,1-1.33-.21,1.31,1.31,0,0,0-.47,1.07,1,1,0,0,0,.29.78,1.62,1.62,0,0,0,1.07.26h1.46a4.81,4.81,0,0,1,3.3,1.08,3.5,3.5,0,0,1,1.22,2.74,3.8,3.8,0,0,1-1.52,3.16,6.92,6.92,0,0,1-4.33,1.18q-3,0-4.15-1.09a4.14,4.14,0,0,1-1.18-3.2h2.83a2.05,2.05,0,0,0,.52,1.59,3.1,3.1,0,0,0,2,.47,3.22,3.22,0,0,0,2-.49,1.72,1.72,0,0,0,.6-1.4,1.61,1.61,0,0,0-.49-1.3,2.35,2.35,0,0,0-1.53-.42h-1a4.74,4.74,0,0,1-2.89-.7,2.3,2.3,0,0,1-.91-1.92,2.59,2.59,0,0,1,.38-1.34,3.94,3.94,0,0,1,1-1.13,4.32,4.32,0,0,1-1.56-1.61,4.86,4.86,0,0,1-.49-2.29,4.75,4.75,0,0,1,1.35-3.58,5,5,0,0,1,3.64-1.31,9.06,9.06,0,0,0,2.79-.36,12.6,12.6,0,0,0,2.33-1.07Zm-7.31,1.74a3.56,3.56,0,0,0-.47,2.05,3.72,3.72,0,0,0,.47,2,1.69,1.69,0,0,0,2.7.08,3.9,3.9,0,0,0,.44-2.15,3.75,3.75,0,0,0-.43-2,1.5,1.5,0,0,0-1.34-.64A1.59,1.59,0,0,0,590.08,355.31Z" transform="translate(-545.2 -346.01)" style="fill:#fff"/><path d="M607.58,353.57a4.43,4.43,0,0,1,.86,2.86v10.19h-3.2V356.8a2.75,2.75,0,0,0-.27-1.42.88.88,0,0,0-.79-.43q-1.09,0-2.16,2.05v9.62h-3.2V352.87h2.78l.23,1.79a5.48,5.48,0,0,1,1.5-1.62,3.34,3.34,0,0,1,1.91-.53A2.84,2.84,0,0,1,607.58,353.57Z" transform="translate(-545.2 -346.01)" style="fill:#fff"/><path d="M621,360.75h-7.1a5.59,5.59,0,0,0,.74,3,2.13,2.13,0,0,0,1.81.85,3.72,3.72,0,0,0,1.46-.27,6.13,6.13,0,0,0,1.4-.87l1.33,1.82a6,6,0,0,1-4.37,1.77,4.92,4.92,0,0,1-4.15-1.87,8.48,8.48,0,0,1-1.44-5.28,9.27,9.27,0,0,1,1.38-5.38,4.88,4.88,0,0,1,7.67-.22,8.36,8.36,0,0,1,1.35,5.16Q621.12,359.66,621,360.75Zm-3-2.26a6.48,6.48,0,0,0-.47-2.85,1.58,1.58,0,0,0-1.51-.9,1.61,1.61,0,0,0-1.47.87,7.24,7.24,0,0,0-.61,3.05H618Z" transform="translate(-545.2 -346.01)" style="fill:#fff"/><path d="M630.48,352.71l-.52,3.07a4,4,0,0,0-1-.13,1.78,1.78,0,0,0-1.56.86,7,7,0,0,0-.88,2.55v7.57h-3.2V352.87h2.78l.23,2.39q1-2.73,3-2.73A2.93,2.93,0,0,1,630.48,352.71Z" transform="translate(-545.2 -346.01)" style="fill:#fff"/><path d="M645.68,349.42a3.89,3.89,0,0,1,1.21,3,4.54,4.54,0,0,1-.75,2.6,9.5,9.5,0,0,1-2.21,2.21l3.17,3.85a29,29,0,0,0,1.07-4l2.57.65a22.3,22.3,0,0,1-1.92,5l2.57,2.76L648.81,367,647,364.73a6.8,6.8,0,0,1-2.18,1.73,6,6,0,0,1-2.6.56,5.55,5.55,0,0,1-2.65-.62,4.49,4.49,0,0,1-1.82-1.75,5.55,5.55,0,0,1,.06-5.33,9.22,9.22,0,0,1,2.27-2.35,9.13,9.13,0,0,1-1.66-2.22,5.2,5.2,0,0,1-.47-2.28,4.1,4.1,0,0,1,1.14-3,4.41,4.41,0,0,1,3.3-1.17A4.66,4.66,0,0,1,645.68,349.42Zm-5,10.71a4.61,4.61,0,0,0-.32,1.81,2.92,2.92,0,0,0,.62,2,2.15,2.15,0,0,0,1.69.7,2.85,2.85,0,0,0,1.46-.38,4.55,4.55,0,0,0,1.25-1.13l-3.61-4.45A4.12,4.12,0,0,0,640.71,360.14Zm.25-7.68a4,4,0,0,0,.29,1.57,7.8,7.8,0,0,0,1,1.6,6.13,6.13,0,0,0,1.22-1.48,3.47,3.47,0,0,0,.36-1.66q0-2.05-1.43-2.05T641,352.45Z" transform="translate(-545.2 -346.01)" style="fill:#fff"/><path d="M668.36,347.36v19.27h-2.83l-.16-1.59a3.61,3.61,0,0,1-6.41.06,10.53,10.53,0,0,1-1.13-5.34,11.47,11.47,0,0,1,.59-3.83,5.76,5.76,0,0,1,1.63-2.54,3.59,3.59,0,0,1,2.39-.88,3.31,3.31,0,0,1,2.73,1.38V347Zm-4.15,16.82a4.91,4.91,0,0,0,.95-1.2V356.3q-.83-1.4-1.9-1.4-2.11,0-2.11,4.84a9.62,9.62,0,0,0,.52,3.74,1.54,1.54,0,0,0,2.54.7Z" transform="translate(-545.2 -346.01)" style="fill:#fff"/><path d="M681.05,360.75H674a5.6,5.6,0,0,0,.74,3,2.13,2.13,0,0,0,1.81.85,3.71,3.71,0,0,0,1.46-.27,6.14,6.14,0,0,0,1.4-.87l1.33,1.82a6,6,0,0,1-4.37,1.77,4.92,4.92,0,0,1-4.15-1.87,8.48,8.48,0,0,1-1.44-5.28,9.27,9.27,0,0,1,1.38-5.38,4.88,4.88,0,0,1,7.67-.22,8.36,8.36,0,0,1,1.35,5.16Q681.13,359.66,681.05,360.75Zm-3-2.26a6.47,6.47,0,0,0-.47-2.85,1.58,1.58,0,0,0-1.51-.9,1.61,1.61,0,0,0-1.47.87,7.24,7.24,0,0,0-.61,3.05H678Z" transform="translate(-545.2 -346.01)" style="fill:#fff"/><path d="M692.8,352.87l-3.59,13.75h-3.77l-3.69-13.75h3.3L687.32,364l2.34-11.18Z" transform="translate(-545.2 -346.01)" style="fill:#fff"/><path d="M703.88,360.75h-7.1a5.59,5.59,0,0,0,.74,3,2.13,2.13,0,0,0,1.81.85,3.72,3.72,0,0,0,1.46-.27,6.14,6.14,0,0,0,1.4-.87l1.33,1.82a6,6,0,0,1-4.37,1.77,4.92,4.92,0,0,1-4.15-1.87,8.48,8.48,0,0,1-1.44-5.28,9.27,9.27,0,0,1,1.38-5.38,4.88,4.88,0,0,1,7.67-.22,8.35,8.35,0,0,1,1.35,5.16Q704,359.66,703.88,360.75Zm-3-2.26a6.49,6.49,0,0,0-.47-2.85,1.58,1.58,0,0,0-1.51-.9,1.61,1.61,0,0,0-1.47.87,7.23,7.23,0,0,0-.61,3.05h4.06Z" transform="translate(-545.2 -346.01)" style="fill:#fff"/><path d="M706.88,366.14a3.26,3.26,0,0,1-.82-2.33V347.36l3.2-.34v16.67a.89.89,0,0,0,.16.55.55.55,0,0,0,.47.21,1.18,1.18,0,0,0,.35-.05l.22-.05.62,2.18a4,4,0,0,1-2,.49A2.9,2.9,0,0,1,706.88,366.14Z" transform="translate(-545.2 -346.01)" style="fill:#fff"/><path d="M721.47,354.33a8.58,8.58,0,0,1,1.44,5.41,8.71,8.71,0,0,1-1.46,5.36,5.22,5.22,0,0,1-8.06,0,8.67,8.67,0,0,1-1.46-5.39,8.57,8.57,0,0,1,1.46-5.36,5.34,5.34,0,0,1,8.07-.05Zm-5.68,1.7a13.54,13.54,0,0,0,0,7.44,1.77,1.77,0,0,0,3.28,0,13.59,13.59,0,0,0,0-7.45,1.77,1.77,0,0,0-3.28,0Z" transform="translate(-545.2 -346.01)" style="fill:#fff"/><path d="M734.69,354.36a11.12,11.12,0,0,1,1,5.34,10.33,10.33,0,0,1-1.18,5.34,3.66,3.66,0,0,1-3.29,2,3.37,3.37,0,0,1-2.78-1.48v6.37l-3.2.36v-19.4h2.83l.13,1.66a4.72,4.72,0,0,1,1.51-1.53,3.6,3.6,0,0,1,1.87-.49A3.32,3.32,0,0,1,734.69,354.36Zm-2.78,9.07a9.56,9.56,0,0,0,.52-3.71A11.06,11.06,0,0,0,732,356a1.46,1.46,0,0,0-1.38-1.07q-1.2,0-2.13,1.72v6.66a2.34,2.34,0,0,0,1.92,1.3A1.64,1.64,0,0,0,731.91,363.44Z" transform="translate(-545.2 -346.01)" style="fill:#fff"/><path d="M747.85,360.75h-7.1a5.59,5.59,0,0,0,.74,3,2.13,2.13,0,0,0,1.81.85,3.72,3.72,0,0,0,1.46-.27,6.14,6.14,0,0,0,1.4-.87l1.33,1.82a6,6,0,0,1-4.37,1.77,4.92,4.92,0,0,1-4.15-1.87,8.48,8.48,0,0,1-1.44-5.28,9.27,9.27,0,0,1,1.38-5.38,4.88,4.88,0,0,1,7.67-.22,8.35,8.35,0,0,1,1.35,5.16Q747.92,359.66,747.85,360.75Zm-3-2.26a6.49,6.49,0,0,0-.47-2.85,1.58,1.58,0,0,0-1.51-.9,1.61,1.61,0,0,0-1.47.87,7.23,7.23,0,0,0-.61,3.05h4.06Z" transform="translate(-545.2 -346.01)" style="fill:#fff"/><path d="M757.28,352.71l-.52,3.07a4,4,0,0,0-1-.13,1.78,1.78,0,0,0-1.56.86,7,7,0,0,0-.88,2.55v7.57h-3.2V352.87h2.78l.23,2.39q1-2.73,3-2.73A2.93,2.93,0,0,1,757.28,352.71Z" transform="translate(-545.2 -346.01)" style="fill:#fff"/></svg>